<mxfile host="65bd71144e">
    <diagram name="Page-1" id="xDFbSy6HNDZAhjBDgOxl">
        <mxGraphModel dx="1544" dy="1113" grid="0" gridSize="10" guides="1" tooltips="1" connect="1" arrows="1" fold="1" page="1" pageScale="1" pageWidth="850" pageHeight="1100" math="0" shadow="0">
            <root>
                <mxCell id="0"/>
                <mxCell id="1" parent="0"/>
                <mxCell id="36" value="" style="rounded=0;whiteSpace=wrap;html=1;" vertex="1" parent="1">
                    <mxGeometry x="409" y="702" width="206" height="174" as="geometry"/>
                </mxCell>
                <mxCell id="DiDdIuaTlxyAD_moarf--30" value="See feedback" style="text;html=1;align=center;verticalAlign=middle;resizable=0;points=[];autosize=1;strokeColor=none;fillColor=none;" parent="1" vertex="1">
                    <mxGeometry x="279" y="660" width="91" height="26" as="geometry"/>
                </mxCell>
                <mxCell id="DiDdIuaTlxyAD_moarf--67" style="edgeStyle=orthogonalEdgeStyle;rounded=0;orthogonalLoop=1;jettySize=auto;html=1;exitX=1;exitY=0.5;exitDx=0;exitDy=0;entryX=0;entryY=0.5;entryDx=0;entryDy=0;" parent="1" source="DiDdIuaTlxyAD_moarf--68" target="DiDdIuaTlxyAD_moarf--87" edge="1">
                    <mxGeometry relative="1" as="geometry">
                        <mxPoint x="268" y="458" as="targetPoint"/>
                    </mxGeometry>
                </mxCell>
                <mxCell id="DiDdIuaTlxyAD_moarf--68" value="&lt;b&gt;Search Products and Supermarkets&lt;/b&gt;" style="ellipse;whiteSpace=wrap;html=1;aspect=fixed;" parent="1" vertex="1">
                    <mxGeometry x="98" y="408" width="100" height="100" as="geometry"/>
                </mxCell>
                <mxCell id="DiDdIuaTlxyAD_moarf--83" value="Plots" style="swimlane;fontStyle=0;childLayout=stackLayout;horizontal=1;startSize=30;horizontalStack=0;resizeParent=1;resizeParentMax=0;resizeLast=0;collapsible=1;marginBottom=0;whiteSpace=wrap;html=1;" parent="1" vertex="1">
                    <mxGeometry x="28" y="228" width="409" height="90" as="geometry"/>
                </mxCell>
                <mxCell id="DiDdIuaTlxyAD_moarf--84" value="&lt;b style=&quot;border-color: var(--border-color); text-align: center;&quot;&gt;Supermarkets' Home -&amp;gt;&amp;nbsp;&lt;/b&gt;&lt;b style=&quot;border-color: var(--border-color); text-align: center;&quot;&gt;Supermarket's Categories -&amp;gt;&amp;nbsp;&lt;/b&gt;&lt;b style=&quot;border-color: var(--border-color); text-align: center;&quot;&gt;Product's&amp;nbsp;&lt;/b&gt;&lt;b style=&quot;text-align: center; background-color: initial; border-color: var(--border-color);&quot;&gt;forum&lt;/b&gt;" style="text;strokeColor=none;fillColor=none;align=left;verticalAlign=middle;spacingLeft=4;spacingRight=4;overflow=hidden;points=[[0,0.5],[1,0.5]];portConstraint=eastwest;rotatable=0;whiteSpace=wrap;html=1;" parent="DiDdIuaTlxyAD_moarf--83" vertex="1">
                    <mxGeometry y="30" width="409" height="30" as="geometry"/>
                </mxCell>
                <mxCell id="DiDdIuaTlxyAD_moarf--85" value="&lt;b style=&quot;border-color: var(--border-color); text-align: center;&quot;&gt;Supermarkets' Home -&lt;/b&gt;&lt;b style=&quot;border-color: var(--border-color); text-align: center;&quot;&gt;&amp;gt;&amp;nbsp;&lt;/b&gt;&lt;b style=&quot;border-color: var(--border-color); text-align: center;&quot;&gt;Product's&amp;nbsp;&lt;/b&gt;&lt;b style=&quot;border-color: var(--border-color); background-color: initial; text-align: center;&quot;&gt;forum&lt;/b&gt;" style="text;strokeColor=none;fillColor=none;align=left;verticalAlign=middle;spacingLeft=4;spacingRight=4;overflow=hidden;points=[[0,0.5],[1,0.5]];portConstraint=eastwest;rotatable=0;whiteSpace=wrap;html=1;" parent="DiDdIuaTlxyAD_moarf--83" vertex="1">
                    <mxGeometry y="60" width="409" height="30" as="geometry"/>
                </mxCell>
                <mxCell id="DiDdIuaTlxyAD_moarf--86" style="edgeStyle=orthogonalEdgeStyle;rounded=0;orthogonalLoop=1;jettySize=auto;html=1;exitX=0.5;exitY=0;exitDx=0;exitDy=0;dashed=1;endArrow=none;endFill=0;" parent="1" source="DiDdIuaTlxyAD_moarf--68" edge="1">
                    <mxGeometry relative="1" as="geometry">
                        <mxPoint x="148" y="318" as="targetPoint"/>
                    </mxGeometry>
                </mxCell>
                <mxCell id="DiDdIuaTlxyAD_moarf--96" style="edgeStyle=orthogonalEdgeStyle;rounded=0;orthogonalLoop=1;jettySize=auto;html=1;exitX=0.25;exitY=1;exitDx=0;exitDy=0;entryX=0.25;entryY=0;entryDx=0;entryDy=0;fillColor=#60a917;strokeColor=#2D7600;" parent="1" source="DiDdIuaTlxyAD_moarf--87" target="DiDdIuaTlxyAD_moarf--95" edge="1">
                    <mxGeometry relative="1" as="geometry"/>
                </mxCell>
                <mxCell id="7" style="edgeStyle=none;curved=1;html=1;exitX=1;exitY=0.5;exitDx=0;exitDy=0;fillColor=#0050ef;strokeColor=#001DBC;" edge="1" parent="1" source="DiDdIuaTlxyAD_moarf--87" target="2">
                    <mxGeometry relative="1" as="geometry"/>
                </mxCell>
                <mxCell id="DiDdIuaTlxyAD_moarf--87" value="&lt;b&gt;Supermarkets' Home&lt;/b&gt;" style="rounded=0;whiteSpace=wrap;html=1;" parent="1" vertex="1">
                    <mxGeometry x="250" y="428" width="120" height="60" as="geometry"/>
                </mxCell>
                <mxCell id="DiDdIuaTlxyAD_moarf--88" value="" style="curved=1;endArrow=classic;html=1;rounded=0;exitX=0.25;exitY=0;exitDx=0;exitDy=0;entryX=0.858;entryY=0;entryDx=0;entryDy=0;entryPerimeter=0;" parent="1" edge="1">
                    <mxGeometry width="50" height="50" relative="1" as="geometry">
                        <mxPoint x="273" y="428" as="sourcePoint"/>
                        <mxPoint x="346" y="428" as="targetPoint"/>
                        <Array as="points">
                            <mxPoint x="283" y="398"/>
                            <mxPoint x="333" y="398"/>
                        </Array>
                    </mxGeometry>
                </mxCell>
                <mxCell id="DiDdIuaTlxyAD_moarf--100" style="edgeStyle=orthogonalEdgeStyle;rounded=0;orthogonalLoop=1;jettySize=auto;html=1;exitX=0.75;exitY=0;exitDx=0;exitDy=0;entryX=0.75;entryY=1;entryDx=0;entryDy=0;fillColor=#e3c800;strokeColor=#B09500;" parent="1" source="DiDdIuaTlxyAD_moarf--95" target="DiDdIuaTlxyAD_moarf--87" edge="1">
                    <mxGeometry relative="1" as="geometry"/>
                </mxCell>
                <mxCell id="8" style="edgeStyle=none;curved=1;html=1;exitX=1;exitY=0.5;exitDx=0;exitDy=0;entryX=0;entryY=0.5;entryDx=0;entryDy=0;fillColor=#0050ef;strokeColor=#001DBC;" edge="1" parent="1" source="DiDdIuaTlxyAD_moarf--95" target="2">
                    <mxGeometry relative="1" as="geometry"/>
                </mxCell>
                <mxCell id="DiDdIuaTlxyAD_moarf--95" value="&lt;b&gt;Product's&lt;/b&gt;&lt;div&gt;&lt;b&gt;forum&lt;/b&gt;&lt;/div&gt;" style="rounded=0;whiteSpace=wrap;html=1;" parent="1" vertex="1">
                    <mxGeometry x="250" y="586" width="120" height="60" as="geometry"/>
                </mxCell>
                <mxCell id="DiDdIuaTlxyAD_moarf--97" value="Search supermarket's products" style="text;html=1;align=center;verticalAlign=middle;resizable=0;points=[];autosize=1;strokeColor=none;fillColor=none;" parent="1" vertex="1">
                    <mxGeometry x="218" y="370" width="184" height="26" as="geometry"/>
                </mxCell>
                <mxCell id="DiDdIuaTlxyAD_moarf--98" value="See product" style="text;html=1;align=center;verticalAlign=middle;resizable=0;points=[];autosize=1;strokeColor=none;fillColor=none;" parent="1" vertex="1">
                    <mxGeometry x="485" y="836" width="83" height="26" as="geometry"/>
                </mxCell>
                <mxCell id="DiDdIuaTlxyAD_moarf--104" value="Expand details" style="text;html=1;align=center;verticalAlign=middle;resizable=0;points=[];autosize=1;strokeColor=none;fillColor=none;" parent="1" vertex="1">
                    <mxGeometry x="91" y="614" width="97" height="26" as="geometry"/>
                </mxCell>
                <mxCell id="DiDdIuaTlxyAD_moarf--109" value="Favourite product" style="text;html=1;align=center;verticalAlign=middle;resizable=0;points=[];autosize=1;strokeColor=none;fillColor=none;" parent="1" vertex="1">
                    <mxGeometry x="84" y="579" width="111" height="26" as="geometry"/>
                </mxCell>
                <mxCell id="24" style="edgeStyle=none;curved=1;html=1;exitX=0;exitY=0.5;exitDx=0;exitDy=0;" edge="1" parent="1" source="DiDdIuaTlxyAD_moarf--125" target="2">
                    <mxGeometry relative="1" as="geometry"/>
                </mxCell>
                <mxCell id="27" style="edgeStyle=none;curved=1;html=1;exitX=1;exitY=0.5;exitDx=0;exitDy=0;entryX=0.017;entryY=-0.033;entryDx=0;entryDy=0;entryPerimeter=0;endArrow=none;endFill=0;dashed=1;" edge="1" parent="1" source="DiDdIuaTlxyAD_moarf--125" target="DiDdIuaTlxyAD_moarf--186">
                    <mxGeometry relative="1" as="geometry"/>
                </mxCell>
                <mxCell id="DiDdIuaTlxyAD_moarf--125" value="&lt;b&gt;ScanQR&lt;/b&gt;" style="ellipse;whiteSpace=wrap;html=1;aspect=fixed;" parent="1" vertex="1">
                    <mxGeometry x="861" y="408" width="100" height="100" as="geometry"/>
                </mxCell>
                <mxCell id="25" style="edgeStyle=none;curved=1;html=1;exitX=0;exitY=0.5;exitDx=0;exitDy=0;" edge="1" parent="1" source="DiDdIuaTlxyAD_moarf--142" target="3">
                    <mxGeometry relative="1" as="geometry"/>
                </mxCell>
                <mxCell id="26" style="edgeStyle=none;curved=1;html=1;exitX=1;exitY=0.5;exitDx=0;exitDy=0;entryX=0.004;entryY=0.033;entryDx=0;entryDy=0;entryPerimeter=0;endArrow=none;endFill=0;startArrow=none;startFill=0;dashed=1;" edge="1" parent="1" source="DiDdIuaTlxyAD_moarf--142" target="DiDdIuaTlxyAD_moarf--205">
                    <mxGeometry relative="1" as="geometry"/>
                </mxCell>
                <mxCell id="DiDdIuaTlxyAD_moarf--142" value="&lt;b&gt;See favourite products&lt;/b&gt;" style="ellipse;whiteSpace=wrap;html=1;aspect=fixed;" parent="1" vertex="1">
                    <mxGeometry x="861" y="570" width="100" height="100" as="geometry"/>
                </mxCell>
                <mxCell id="DiDdIuaTlxyAD_moarf--155" style="edgeStyle=orthogonalEdgeStyle;rounded=0;orthogonalLoop=1;jettySize=auto;html=1;exitX=0;exitY=0;exitDx=0;exitDy=0;entryX=0;entryY=0.25;entryDx=0;entryDy=0;curved=1;" parent="1" source="DiDdIuaTlxyAD_moarf--95" target="DiDdIuaTlxyAD_moarf--95" edge="1">
                    <mxGeometry relative="1" as="geometry">
                        <Array as="points">
                            <mxPoint x="201" y="586"/>
                            <mxPoint x="201" y="601"/>
                        </Array>
                    </mxGeometry>
                </mxCell>
                <mxCell id="DiDdIuaTlxyAD_moarf--156" style="edgeStyle=orthogonalEdgeStyle;rounded=0;orthogonalLoop=1;jettySize=auto;html=1;exitX=0;exitY=0.5;exitDx=0;exitDy=0;entryX=0;entryY=0.75;entryDx=0;entryDy=0;curved=1;" parent="1" source="DiDdIuaTlxyAD_moarf--95" target="DiDdIuaTlxyAD_moarf--95" edge="1">
                    <mxGeometry relative="1" as="geometry">
                        <Array as="points">
                            <mxPoint x="201" y="616"/>
                            <mxPoint x="201" y="631"/>
                        </Array>
                    </mxGeometry>
                </mxCell>
                <mxCell id="DiDdIuaTlxyAD_moarf--185" value="Plots" style="swimlane;fontStyle=0;childLayout=stackLayout;horizontal=1;startSize=30;horizontalStack=0;resizeParent=1;resizeParentMax=0;resizeLast=0;collapsible=1;marginBottom=0;whiteSpace=wrap;html=1;" parent="1" vertex="1">
                    <mxGeometry x="994" y="387" width="240" height="60" as="geometry"/>
                </mxCell>
                <mxCell id="DiDdIuaTlxyAD_moarf--186" value="&lt;b style=&quot;border-color: var(--border-color); text-align: center;&quot;&gt;&lt;b style=&quot;border-color: var(--border-color);&quot;&gt;QRScanner&lt;/b&gt;&amp;nbsp;-&lt;/b&gt;&lt;b style=&quot;border-color: var(--border-color); text-align: center;&quot;&gt;&amp;gt;&amp;nbsp;&lt;/b&gt;&lt;b style=&quot;border-color: var(--border-color); text-align: center;&quot;&gt;Product's&amp;nbsp;&lt;/b&gt;&lt;b style=&quot;border-color: var(--border-color); background-color: initial; text-align: center;&quot;&gt;forum&lt;/b&gt;" style="text;strokeColor=none;fillColor=none;align=left;verticalAlign=middle;spacingLeft=4;spacingRight=4;overflow=hidden;points=[[0,0.5],[1,0.5]];portConstraint=eastwest;rotatable=0;whiteSpace=wrap;html=1;" parent="DiDdIuaTlxyAD_moarf--185" vertex="1">
                    <mxGeometry y="30" width="240" height="30" as="geometry"/>
                </mxCell>
                <mxCell id="DiDdIuaTlxyAD_moarf--204" value="Plots" style="swimlane;fontStyle=0;childLayout=stackLayout;horizontal=1;startSize=30;horizontalStack=0;resizeParent=1;resizeParentMax=0;resizeLast=0;collapsible=1;marginBottom=0;whiteSpace=wrap;html=1;" parent="1" vertex="1">
                    <mxGeometry x="994" y="545" width="240" height="60" as="geometry"/>
                </mxCell>
                <mxCell id="DiDdIuaTlxyAD_moarf--205" value="&lt;b style=&quot;border-color: var(--border-color); text-align: center;&quot;&gt;&lt;b style=&quot;border-color: var(--border-color);&quot;&gt;Favourite Products&lt;/b&gt;&amp;nbsp;-&lt;/b&gt;&lt;b style=&quot;border-color: var(--border-color); text-align: center;&quot;&gt;&amp;gt;&amp;nbsp;&lt;/b&gt;&lt;b style=&quot;border-color: var(--border-color); text-align: center;&quot;&gt;Product's&amp;nbsp;&lt;/b&gt;&lt;b style=&quot;border-color: var(--border-color); background-color: initial; text-align: center;&quot;&gt;forum&lt;/b&gt;" style="text;strokeColor=none;fillColor=none;align=left;verticalAlign=middle;spacingLeft=4;spacingRight=4;overflow=hidden;points=[[0,0.5],[1,0.5]];portConstraint=eastwest;rotatable=0;whiteSpace=wrap;html=1;" parent="DiDdIuaTlxyAD_moarf--204" vertex="1">
                    <mxGeometry y="30" width="240" height="30" as="geometry"/>
                </mxCell>
                <mxCell id="DiDdIuaTlxyAD_moarf--208" value="User ignores highlights and decides to search a certain supermarket´s products" style="text;html=1;align=center;verticalAlign=middle;resizable=0;points=[];autosize=1;strokeColor=none;fillColor=none;" parent="1" vertex="1">
                    <mxGeometry x="433" y="260" width="440" height="26" as="geometry"/>
                </mxCell>
                <mxCell id="DiDdIuaTlxyAD_moarf--209" value="User finds interest in one of the product´s highlights" style="text;html=1;align=center;verticalAlign=middle;resizable=0;points=[];autosize=1;strokeColor=none;fillColor=none;" parent="1" vertex="1">
                    <mxGeometry x="508" y="286" width="291" height="26" as="geometry"/>
                </mxCell>
                <mxCell id="DiDdIuaTlxyAD_moarf--210" style="edgeStyle=orthogonalEdgeStyle;rounded=0;orthogonalLoop=1;jettySize=auto;html=1;exitX=0;exitY=1;exitDx=0;exitDy=0;entryX=0.25;entryY=1;entryDx=0;entryDy=0;curved=1;" parent="1" source="DiDdIuaTlxyAD_moarf--95" target="DiDdIuaTlxyAD_moarf--95" edge="1">
                    <mxGeometry relative="1" as="geometry">
                        <Array as="points">
                            <mxPoint x="250" y="666"/>
                            <mxPoint x="280" y="666"/>
                        </Array>
                    </mxGeometry>
                </mxCell>
                <mxCell id="DiDdIuaTlxyAD_moarf--211" value="Give feedback" style="text;html=1;align=center;verticalAlign=middle;resizable=0;points=[];autosize=1;strokeColor=none;fillColor=none;" parent="1" vertex="1">
                    <mxGeometry x="147" y="644" width="95" height="26" as="geometry"/>
                </mxCell>
                <mxCell id="21" style="edgeStyle=none;curved=1;html=1;exitX=0;exitY=0.25;exitDx=0;exitDy=0;entryX=1;entryY=0.25;entryDx=0;entryDy=0;fillColor=#60a917;strokeColor=#2D7600;" edge="1" parent="1" source="2" target="DiDdIuaTlxyAD_moarf--95">
                    <mxGeometry relative="1" as="geometry"/>
                </mxCell>
                <mxCell id="22" style="edgeStyle=none;curved=1;html=1;exitX=0;exitY=0.75;exitDx=0;exitDy=0;entryX=1;entryY=0.75;entryDx=0;entryDy=0;fillColor=#e3c800;strokeColor=#B09500;" edge="1" parent="1" source="2" target="DiDdIuaTlxyAD_moarf--87">
                    <mxGeometry relative="1" as="geometry"/>
                </mxCell>
                <mxCell id="2" value="&lt;b&gt;QRScanner&lt;/b&gt;" style="rounded=0;whiteSpace=wrap;html=1;" vertex="1" parent="1">
                    <mxGeometry x="646" y="428" width="120" height="60" as="geometry"/>
                </mxCell>
                <mxCell id="9" style="edgeStyle=none;curved=1;html=1;exitX=0.5;exitY=0;exitDx=0;exitDy=0;entryX=0.5;entryY=1;entryDx=0;entryDy=0;fillColor=#0050ef;strokeColor=#001DBC;" edge="1" parent="1">
                    <mxGeometry relative="1" as="geometry">
                        <mxPoint x="740" y="597" as="sourcePoint"/>
                        <mxPoint x="740" y="488" as="targetPoint"/>
                    </mxGeometry>
                </mxCell>
                <mxCell id="19" style="edgeStyle=none;curved=1;html=1;exitX=0;exitY=0.75;exitDx=0;exitDy=0;entryX=1;entryY=0.75;entryDx=0;entryDy=0;fillColor=#60a917;strokeColor=#2D7600;" edge="1" parent="1" source="3" target="DiDdIuaTlxyAD_moarf--95">
                    <mxGeometry relative="1" as="geometry"/>
                </mxCell>
                <mxCell id="23" style="edgeStyle=none;curved=1;html=1;exitX=0;exitY=0.25;exitDx=0;exitDy=0;entryX=1;entryY=0.25;entryDx=0;entryDy=0;fillColor=#e3c800;strokeColor=#B09500;" edge="1" parent="1" source="3" target="DiDdIuaTlxyAD_moarf--87">
                    <mxGeometry relative="1" as="geometry"/>
                </mxCell>
                <mxCell id="3" value="&lt;b&gt;Favourite Products&lt;/b&gt;" style="rounded=0;whiteSpace=wrap;html=1;" vertex="1" parent="1">
                    <mxGeometry x="646" y="590" width="120" height="60" as="geometry"/>
                </mxCell>
                <mxCell id="4" style="edgeStyle=none;html=1;exitX=0.5;exitY=1;exitDx=0;exitDy=0;entryX=0.75;entryY=1;entryDx=0;entryDy=0;curved=1;" edge="1" parent="1" source="DiDdIuaTlxyAD_moarf--95" target="DiDdIuaTlxyAD_moarf--95">
                    <mxGeometry relative="1" as="geometry">
                        <Array as="points">
                            <mxPoint x="325" y="668"/>
                        </Array>
                    </mxGeometry>
                </mxCell>
                <mxCell id="13" value="Unfavourite" style="text;html=1;align=center;verticalAlign=middle;resizable=0;points=[];autosize=1;strokeColor=none;fillColor=none;" vertex="1" parent="1">
                    <mxGeometry x="666.5" y="674" width="79" height="26" as="geometry"/>
                </mxCell>
                <mxCell id="14" style="edgeStyle=orthogonalEdgeStyle;rounded=0;orthogonalLoop=1;jettySize=auto;html=1;exitX=0.25;exitY=1;exitDx=0;exitDy=0;entryX=0.75;entryY=1;entryDx=0;entryDy=0;curved=1;" edge="1" parent="1">
                    <mxGeometry relative="1" as="geometry">
                        <mxPoint x="675.5" y="650" as="sourcePoint"/>
                        <mxPoint x="735.5" y="650" as="targetPoint"/>
                        <Array as="points">
                            <mxPoint x="675.5" y="671"/>
                            <mxPoint x="735.5" y="671"/>
                        </Array>
                    </mxGeometry>
                </mxCell>
                <mxCell id="15" style="edgeStyle=none;curved=1;html=1;exitX=1;exitY=0.5;exitDx=0;exitDy=0;entryX=0;entryY=0.5;entryDx=0;entryDy=0;fillColor=#a20025;strokeColor=#6F0000;" edge="1" parent="1" target="3">
                    <mxGeometry relative="1" as="geometry">
                        <mxPoint x="370.5" y="457.5" as="sourcePoint"/>
                        <mxPoint x="646.5" y="457.5" as="targetPoint"/>
                    </mxGeometry>
                </mxCell>
                <mxCell id="16" style="edgeStyle=none;curved=1;html=1;entryX=0;entryY=0.5;entryDx=0;entryDy=0;exitX=1;exitY=0.5;exitDx=0;exitDy=0;fillColor=#a20025;strokeColor=#6F0000;" edge="1" parent="1" source="DiDdIuaTlxyAD_moarf--95" target="3">
                    <mxGeometry relative="1" as="geometry">
                        <mxPoint x="476" y="641" as="sourcePoint"/>
                        <mxPoint x="656" y="637" as="targetPoint"/>
                    </mxGeometry>
                </mxCell>
                <mxCell id="18" style="edgeStyle=none;curved=1;html=1;exitX=0.25;exitY=1;exitDx=0;exitDy=0;entryX=0.25;entryY=0;entryDx=0;entryDy=0;fillColor=#a20025;strokeColor=#6F0000;" edge="1" parent="1" source="2" target="3">
                    <mxGeometry relative="1" as="geometry">
                        <mxPoint x="645" y="599" as="sourcePoint"/>
                        <mxPoint x="645" y="490" as="targetPoint"/>
                    </mxGeometry>
                </mxCell>
                <mxCell id="29" style="edgeStyle=none;curved=1;html=1;fillColor=#a20025;strokeColor=#6F0000;" edge="1" parent="1">
                    <mxGeometry relative="1" as="geometry">
                        <mxPoint x="422" y="731.5" as="sourcePoint"/>
                        <mxPoint x="463" y="731" as="targetPoint"/>
                    </mxGeometry>
                </mxCell>
                <mxCell id="31" style="edgeStyle=none;curved=1;html=1;fillColor=#0050ef;strokeColor=#001DBC;" edge="1" parent="1">
                    <mxGeometry relative="1" as="geometry">
                        <mxPoint x="423" y="767.5" as="sourcePoint"/>
                        <mxPoint x="464" y="767" as="targetPoint"/>
                    </mxGeometry>
                </mxCell>
                <mxCell id="33" style="edgeStyle=none;curved=1;html=1;fillColor=#e3c800;strokeColor=#B09500;" edge="1" parent="1">
                    <mxGeometry relative="1" as="geometry">
                        <mxPoint x="425" y="812.5" as="sourcePoint"/>
                        <mxPoint x="466" y="812" as="targetPoint"/>
                    </mxGeometry>
                </mxCell>
                <mxCell id="34" value="See favourite products" style="text;html=1;align=center;verticalAlign=middle;resizable=0;points=[];autosize=1;strokeColor=none;fillColor=none;" vertex="1" parent="1">
                    <mxGeometry x="466" y="721" width="138" height="26" as="geometry"/>
                </mxCell>
                <mxCell id="38" value="Scan QR" style="text;html=1;align=center;verticalAlign=middle;resizable=0;points=[];autosize=1;strokeColor=none;fillColor=none;" vertex="1" parent="1">
                    <mxGeometry x="493" y="757" width="67" height="26" as="geometry"/>
                </mxCell>
                <mxCell id="40" value="Go back to search" style="text;html=1;align=center;verticalAlign=middle;resizable=0;points=[];autosize=1;strokeColor=none;fillColor=none;" vertex="1" parent="1">
                    <mxGeometry x="475" y="798" width="115" height="26" as="geometry"/>
                </mxCell>
                <mxCell id="41" style="edgeStyle=none;curved=1;html=1;fillColor=#60a917;strokeColor=#2D7600;" edge="1" parent="1">
                    <mxGeometry relative="1" as="geometry">
                        <mxPoint x="428.5" y="848.79" as="sourcePoint"/>
                        <mxPoint x="469.5" y="848.29" as="targetPoint"/>
                    </mxGeometry>
                </mxCell>
            </root>
        </mxGraphModel>
    </diagram>
</mxfile>